<svg xmlns="http://www.w3.org/2000/svg" xmlns:xlink="http://www.w3.org/1999/xlink" viewBox="0 0 512 512"><defs><style>.cls-1{fill:#fff;stroke:#fff;stroke-width:39.49px;}.cls-1,.cls-2,.cls-3,.cls-4,.cls-5,.cls-6,.cls-7{stroke-miterlimit:10;}.cls-2,.cls-3,.cls-4,.cls-5,.cls-6,.cls-7{stroke:#000;}.cls-2,.cls-7{stroke-width:16.9px;}.cls-2{fill:url(#Безымянный_градиент_80);}.cls-3,.cls-4,.cls-5,.cls-6{stroke-width:11.27px;}.cls-3{fill:url(#Безымянный_градиент_73);}.cls-4{fill:url(#Безымянный_градиент_83);}.cls-5{fill:url(#Безымянный_градиент_74);}.cls-6{fill:url(#Безымянный_градиент_84);}.cls-7{fill:none;}</style><linearGradient id="Безымянный_градиент_80" x1="243.08" y1="94.51" x2="243.08" y2="433.73" gradientUnits="userSpaceOnUse"><stop offset="0.01" stop-color="#a53030"/><stop offset="1" stop-color="#da863e"/></linearGradient><linearGradient id="Безымянный_градиент_73" x1="238.26" y1="333.15" x2="238.26" y2="513.92" gradientUnits="userSpaceOnUse"><stop offset="0" stop-color="#da863e"/><stop offset="1" stop-color="#cf573c"/></linearGradient><linearGradient id="Безымянный_градиент_83" x1="194.12" y1="265.02" x2="194.12" y2="457.97" gradientUnits="userSpaceOnUse"><stop offset="0" stop-color="#de9e41"/><stop offset="0.99" stop-color="#cf573c"/></linearGradient><linearGradient id="Безымянный_градиент_74" x1="131" y1="347.76" x2="131" y2="441.35" xlink:href="#Безымянный_градиент_73"/><linearGradient id="Безымянный_градиент_84" x1="342.77" y1="317.41" x2="342.77" y2="494.9" gradientUnits="userSpaceOnUse"><stop offset="0" stop-color="#de9e41"/><stop offset="1" stop-color="#cf573c"/></linearGradient></defs><g id="Слой_2" data-name="Слой 2"><polygon class="cls-1" points="263.68 35.08 179.98 109.12 80.2 311.26 99.51 379.51 185.13 485.09 279.77 485.09 337.71 467.7 402.73 408.48 405.95 253.32 263.68 35.08"/><polygon class="cls-2" points="263.68 35.08 179.98 109.12 80.2 311.26 99.51 379.51 185.13 485.09 279.77 485.09 337.71 467.7 402.73 408.48 405.95 253.32 263.68 35.08"/></g><g id="Слой_3" data-name="Слой 3"><path class="cls-3" d="M187,478.62l56.12-199,46.68,55.85-10,149.58H191.85A5.08,5.08,0,0,1,187,478.62Z"/></g><g id="Слой_4" data-name="Слой 4"><path class="cls-4" d="M243.08,279.66,208.64,168,145.16,343.15l36.05,128a4.08,4.08,0,0,0,7.85,0Z"/></g><g id="Слой_5" data-name="Слой 5"><path class="cls-5" d="M176.77,474.77,99.51,379.51,80.37,311.87a.29.29,0,0,1,.4-.33l64.39,31.61L181.53,472.3A2.74,2.74,0,0,1,176.77,474.77Z"/></g><g id="Слой_6" data-name="Слой 6"><path class="cls-6" d="M279.77,485.09l10-149.58,109.18-77.23a4.33,4.33,0,0,1,6.83,3.63l-3,146.57-65,59.22Z"/><polygon class="cls-7" points="263.68 35.08 179.98 109.12 80.2 311.26 99.51 379.51 185.13 485.09 279.77 485.09 337.71 467.7 402.73 408.48 405.95 253.32 263.68 35.08"/></g></svg>